<svg width="18" height="19" viewBox="0 0 18 19" fill="none" xmlns="http://www.w3.org/2000/svg">
<g clip-path="url(#clip0_53_714)">
<path d="M6.55647 16.8999C6.95184 16.8999 7.27236 16.5646 7.27236 16.151C7.27236 15.7374 6.95184 15.4021 6.55647 15.4021C6.16109 15.4021 5.84058 15.7374 5.84058 16.151C5.84058 16.5646 6.16109 16.8999 6.55647 16.8999Z" stroke="#616467" stroke-width="2" stroke-linecap="round" stroke-linejoin="round"/>
<path d="M14.4312 16.8999C14.8266 16.8999 15.1471 16.5646 15.1471 16.151C15.1471 15.7374 14.8266 15.4021 14.4312 15.4021C14.0358 15.4021 13.7153 15.7374 13.7153 16.151C13.7153 16.5646 14.0358 16.8999 14.4312 16.8999Z" stroke="#616467" stroke-width="2" stroke-linecap="round" stroke-linejoin="round"/>
<path d="M0.829102 1.17261H3.69267L5.61126 11.2006C5.67672 11.5454 5.85602 11.8552 6.11778 12.0756C6.37954 12.296 6.70707 12.4131 7.04304 12.4064H14.0015C14.3375 12.4131 14.665 12.296 14.9268 12.0756C15.1885 11.8552 15.3678 11.5454 15.4333 11.2006L16.5787 4.91721H4.40856" stroke="#616467" stroke-width="2" stroke-linecap="round" stroke-linejoin="round"/>
</g>
<defs>
<clipPath id="clip0_53_714">
<rect width="17.1814" height="17.9741" fill="white" transform="translate(0.113281 0.423706)"/>
</clipPath>
</defs>
</svg>
